<?xml version="1.0" standalone="no"?>
<!DOCTYPE svg PUBLIC "-//W3C//DTD SVG 20010904//EN"
 "http://www.w3.org/TR/2001/REC-SVG-20010904/DTD/svg10.dtd">
<svg version="1.0" xmlns="http://www.w3.org/2000/svg"
 width="600.000000pt" height="600.000000pt" viewBox="0 0 600.000000 600.000000"
 preserveAspectRatio="xMidYMid meet">
<metadata>
Created by potrace 1.14, written by Peter Selinger 2001-2017
</metadata>
<g transform="translate(0.000000,600.000000) scale(0.100000,-0.100000)"
fill="#000000" stroke="none">
<path d="M0 3000 l0 -3000 3000 0 3000 0 0 3000 0 3000 -330 0 -330 0 0 -97
c0 -115 -7 -294 -12 -298 -2 -2 -33 -5 -71 -7 -37 -1 -67 -6 -67 -11 0 -5 -22
-6 -49 -2 -31 4 -51 3 -55 -4 -5 -7 3 -9 24 -4 31 6 31 5 18 -16 -7 -12 -23
-24 -35 -27 -11 -3 -23 -14 -26 -25 -3 -10 -12 -19 -20 -19 -19 0 -31 -31 -16
-40 6 -4 10 -27 9 -51 -1 -24 -1 -50 -1 -56 1 -18 21 -16 21 2 0 8 5 15 10 15
6 0 10 6 10 14 0 9 12 13 41 12 28 0 45 5 54 17 6 9 18 17 24 17 7 0 1 -14
-13 -31 -14 -17 -26 -34 -26 -39 0 -4 -9 -10 -19 -13 -11 -2 -29 -24 -42 -48
-13 -26 -16 -40 -8 -33 8 6 28 11 44 12 28 1 29 1 11 -13 -11 -8 -24 -15 -29
-15 -4 0 -6 -4 -3 -9 3 -5 -21 -35 -54 -67 -33 -33 -58 -65 -55 -72 3 -7 0
-10 -5 -7 -6 4 -8 -3 -6 -17 3 -13 5 -27 5 -31 1 -5 10 -5 21 -2 12 4 20 2 20
-5 0 -6 5 -8 13 -4 8 6 8 3 -1 -9 -9 -10 -11 -24 -6 -39 4 -13 7 -29 6 -35 -2
-7 2 -22 8 -34 10 -17 8 -23 -9 -36 -21 -14 -31 -40 -11 -28 6 4 10 -8 10 -29
0 -27 3 -34 15 -30 11 5 15 -1 15 -17 0 -17 -3 -20 -9 -11 -7 11 -9 11 -14 -2
-3 -8 1 -22 9 -31 9 -8 13 -23 9 -34 -3 -10 1 -23 9 -30 18 -15 13 -66 -9 -91
-11 -12 -13 -20 -6 -25 6 -3 11 -17 11 -31 0 -14 4 -22 10 -19 6 3 10 3 10 -2
0 -13 -42 -58 -83 -87 -21 -15 -34 -32 -31 -38 4 -7 2 -8 -4 -4 -7 4 -32 -7
-56 -24 -25 -16 -55 -34 -68 -40 -13 -5 -17 -9 -8 -9 9 -1 26 6 38 15 37 26
34 12 -9 -35 -21 -25 -38 -49 -37 -56 2 -6 0 -10 -4 -10 -4 0 -23 -16 -42 -34
-20 -19 -36 -31 -36 -25 0 5 -4 2 -9 -6 -5 -8 -6 -32 -2 -53 6 -36 7 -37 26
-23 11 9 14 16 8 16 -7 0 -13 5 -13 12 0 6 3 8 6 5 4 -3 15 4 25 17 10 13 30
24 44 25 64 4 63 4 51 23 -10 17 -11 17 -18 0 -5 -12 -6 -10 -5 9 1 20 5 25
23 21 15 -3 21 -11 22 -32 1 -29 -17 -44 -41 -34 -8 3 -18 -6 -25 -21 -7 -16
-19 -25 -29 -23 -10 2 -17 -2 -15 -10 1 -7 -5 -15 -13 -18 -8 -4 -15 -10 -15
-14 0 -4 24 5 52 20 94 49 118 65 118 78 0 11 12 16 26 10 3 -2 10 5 15 15 13
23 34 22 36 -3 1 -11 -3 -20 -10 -20 -8 0 -8 -3 1 -12 7 -7 12 -21 12 -31 0
-17 -5 -19 -35 -14 -33 5 -34 4 -24 -14 8 -15 7 -24 -2 -35 -16 -19 -11 -22
36 -25 52 -3 82 14 90 50 6 30 36 66 31 39 -6 -35 -21 -64 -37 -76 -11 -7 -19
-19 -19 -26 0 -21 26 -67 33 -59 4 3 7 -15 7 -40 0 -28 5 -47 11 -47 8 0 10
13 6 38 -6 43 4 85 18 80 6 -2 11 16 13 40 2 26 8 42 15 41 7 -1 20 1 30 6 10
4 23 2 31 -4 10 -8 21 -8 41 -1 50 19 62 7 71 -73 4 -40 6 -102 5 -139 -2 -67
4 -79 27 -56 10 10 12 -3 12 -57 0 -39 1 -81 2 -95 2 -19 -2 -25 -14 -24 -10
1 -18 -3 -18 -8 0 -5 -12 -8 -27 -6 -23 2 -28 8 -28 32 -1 16 -6 31 -13 34 -7
2 -12 -5 -12 -17 0 -12 -4 -21 -10 -21 -5 0 -10 5 -10 10 0 6 -9 10 -20 10
-23 0 -28 -37 -10 -71 12 -22 62 -26 82 -6 7 8 28 16 46 20 45 9 43 -18 -3
-33 -19 -6 -35 -15 -35 -19 0 -4 -6 -8 -12 -9 -7 0 -30 -4 -50 -8 l-38 -7 0
37 0 37 -39 -23 c-35 -20 -40 -21 -55 -6 -9 9 -16 25 -17 35 -1 12 -3 10 -8
-7 -4 -15 -3 -28 3 -32 7 -5 6 -11 -3 -20 -9 -8 -11 -9 -7 -1 3 6 3 14 -2 17
-5 3 -8 21 -7 41 0 19 -3 35 -7 35 -4 0 -8 -9 -8 -20 0 -11 -4 -20 -10 -20 -5
0 -10 5 -10 12 0 17 -12 1 -14 -19 -1 -10 -7 -29 -13 -43 -7 -14 -14 -37 -17
-52 -6 -25 -11 -27 -74 -34 l-67 -6 -27 -59 c-37 -79 -36 -91 5 -86 17 2 25 2
15 0 -18 -4 -13 -17 25 -74 10 -15 17 -39 17 -55 -1 -41 17 -476 25 -610 l7
-111 -32 -12 c-18 -6 -48 -11 -67 -11 -39 0 -63 -19 -63 -49 0 -14 -8 -23 -25
-27 -25 -6 -25 -7 -8 -35 22 -37 13 -46 -85 -83 -58 -22 -75 -26 -87 -16 -12
10 -16 9 -21 -6 -4 -11 -25 -36 -48 -56 -23 -21 -33 -35 -24 -32 13 4 15 1 11
-18 -3 -13 -10 -28 -15 -35 -6 -7 -5 -20 2 -32 13 -25 26 -27 34 -6 3 8 2 14
-2 12 -4 -1 -7 3 -7 8 0 6 6 9 13 9 6 -1 12 2 12 7 0 5 5 9 11 9 5 0 7 -4 4
-10 -3 -5 4 -10 17 -11 21 -1 21 -2 -6 -13 -20 -9 -25 -15 -15 -19 10 -4 9 -6
-3 -6 -11 -1 -18 -10 -19 -23 -1 -17 -2 -19 -6 -5 -6 23 -20 22 -28 -4 -4 -13
-2 -25 5 -29 8 -5 8 -10 2 -14 -5 -3 -15 1 -22 9 -7 8 -9 15 -4 15 5 0 0 7
-10 15 -11 8 -17 18 -13 21 4 4 2 13 -4 21 -9 10 -8 13 0 13 7 0 10 8 6 19 -3
10 1 24 10 31 8 7 12 17 9 22 -4 6 -10 5 -15 -3 -6 -10 -9 -8 -9 9 0 12 -4 22
-10 22 -5 0 -10 -11 -10 -25 0 -14 5 -25 10 -25 6 0 3 -12 -7 -26 -12 -19 -17
-49 -18 -108 -1 -44 2 -83 6 -86 4 -3 4 -21 0 -40 -8 -34 -8 -34 -16 22 -6 45
-10 55 -22 51 -12 -5 -13 -2 -5 13 10 19 8 77 -3 95 -4 5 -14 9 -23 9 -21 0
-102 -29 -83 -30 7 0 11 -6 7 -15 -3 -8 -1 -15 4 -15 6 0 10 7 10 15 0 10 10
15 34 15 l33 0 -5 -52 c-8 -79 -61 -126 -57 -50 2 52 -4 64 -27 56 -14 -4 -18
-2 -14 5 4 6 2 11 -3 11 -6 0 -11 -5 -11 -11 0 -5 -4 -7 -10 -4 -14 9 -12 25
3 22 7 -1 13 10 15 25 3 23 0 27 -14 21 -11 -4 -15 -3 -11 4 5 7 0 9 -13 6
-15 -4 -20 0 -20 15 0 12 -8 25 -17 30 -15 9 -12 13 18 31 30 18 31 21 12 21
-13 0 -23 -4 -23 -8 0 -16 -30 -9 -31 7 -1 9 -5 -2 -9 -24 -9 -46 -3 -75 11
-53 7 10 9 10 9 -3 0 -9 -11 -22 -25 -29 -19 -10 -25 -22 -26 -49 l-1 -36 -8
40 c-44 218 -85 513 -74 524 3 3 24 11 46 16 68 17 90 65 73 161 -7 40 -6 42
31 65 21 13 47 25 58 26 24 4 56 32 56 49 0 22 -55 60 -121 83 -113 39 -109
36 -69 56 19 10 40 25 46 34 7 8 25 15 40 16 31 0 33 9 20 65 -5 21 -5 22 3 5
8 -17 10 -15 10 13 1 18 -3 42 -9 52 -7 13 -4 25 13 46 14 18 23 45 24 74 1
25 5 74 9 110 4 47 2 76 -9 101 -12 30 -12 37 1 57 18 27 17 90 -1 162 -8 30
-18 75 -22 100 -6 38 -5 43 7 33 11 -10 18 -7 32 12 11 14 27 25 37 25 11 0
19 5 19 10 0 6 -25 10 -55 10 -54 0 -55 -1 -45 -22 11 -22 11 -22 -5 -3 -26
32 -55 143 -65 245 -5 52 -23 142 -39 200 -17 58 -38 143 -46 190 -9 47 -29
135 -45 195 -16 61 -32 135 -35 165 -12 99 -66 282 -85 287 -10 3 -24 16 -31
30 -15 28 -52 53 -167 115 -130 70 -206 123 -237 168 -16 24 -51 66 -76 94
-25 28 -65 79 -88 113 -23 35 -54 69 -70 77 -15 8 -33 21 -40 29 -10 13 -8 17
11 23 13 4 27 7 32 6 17 -5 76 29 92 53 21 32 11 72 -21 87 -19 8 -22 14 -14
24 6 7 16 11 22 8 14 -5 40 33 32 46 -4 6 -133 10 -326 10 -224 0 -318 -3
-314 -11 4 -5 -1 -19 -11 -30 -16 -17 -16 -19 -1 -19 20 0 23 -16 5 -23 -9 -4
-9 -8 -3 -14 6 -4 11 -19 13 -33 1 -14 7 -26 12 -28 6 -2 10 -10 10 -17 0 -7
6 -15 13 -18 7 -3 -5 -21 -33 -48 -50 -48 -90 -107 -90 -132 0 -8 -11 -29 -25
-45 -16 -20 -25 -42 -25 -66 0 -29 -3 -34 -17 -29 -12 5 -15 2 -10 -10 4 -11
1 -17 -8 -17 -8 0 -14 -3 -13 -7 4 -13 -33 -63 -42 -58 -4 3 -13 -2 -20 -10
-18 -22 -33 -18 -27 6 5 18 2 20 -19 16 -23 -4 -33 6 -15 17 5 3 11 14 14 25
3 14 0 17 -15 13 -11 -3 -17 -10 -14 -19 3 -8 1 -11 -4 -8 -10 6 -14 -25 -11
-71 1 -12 -8 -42 -19 -67 -12 -26 -19 -51 -16 -56 7 -11 -43 -41 -68 -41 -8 0
-17 8 -20 18 -7 21 -34 25 -54 9 -14 -11 -32 5 -32 28 0 6 5 3 10 -5 10 -15
11 -14 15 29 l2 23 -21 -25 c-11 -14 -32 -29 -46 -32 -13 -4 -32 -18 -42 -30
-10 -12 -38 -28 -64 -34 -49 -13 -69 -7 -44 12 16 13 26 42 11 33 -5 -4 -11
-1 -13 6 -8 22 -48 -97 -68 -199 -11 -56 -31 -144 -45 -195 -29 -111 -81 -337
-90 -393 -4 -22 -17 -92 -30 -155 -14 -63 -34 -182 -45 -265 -12 -82 -28 -188
-36 -234 -8 -46 -14 -85 -14 -87 0 -2 -11 -4 -25 -4 -14 0 -25 -4 -25 -9 0 -6
8 -8 18 -6 16 3 18 -4 15 -53 -1 -31 -6 -58 -11 -60 -4 -1 -7 -31 -6 -67 2
-45 -1 -63 -9 -58 -7 4 -8 0 -3 -13 14 -35 19 -130 8 -151 -6 -11 -7 -24 -3
-29 5 -5 14 -37 21 -71 11 -54 10 -67 -5 -108 -16 -40 -17 -55 -7 -109 15 -78
16 -183 2 -191 -6 -3 -10 -50 -10 -104 0 -83 4 -105 24 -144 23 -47 23 -47 5
-82 -23 -43 -25 -63 -5 -46 10 8 16 9 21 1 3 -5 3 -10 -1 -10 -4 0 3 -11 16
-25 18 -20 21 -28 12 -37 -7 -7 -12 -8 -12 -4 0 5 -6 3 -14 -3 -16 -14 -9 -54
8 -44 6 4 4 -1 -3 -11 -14 -17 -15 -16 -24 6 -7 21 -9 21 -18 6 -6 -10 -15
-18 -21 -18 -9 0 -9 3 -1 11 14 14 -6 69 -26 69 -12 0 -12 3 1 18 24 27 31 55
13 48 -18 -6 -18 -5 -5 29 7 17 7 24 0 20 -6 -3 -10 -13 -10 -21 0 -8 -5 -14
-11 -14 -5 0 -8 -3 -5 -8 2 -4 -2 -16 -10 -27 -8 -10 -14 -15 -14 -9 0 5 -5 2
-10 -6 -8 -12 -10 -10 -10 8 0 13 -4 21 -9 18 -5 -4 -7 3 -4 14 3 11 0 27 -7
35 -13 16 -31 20 -29 8 1 -5 1 -21 0 -38 -1 -27 -3 -28 -13 -11 -9 16 -12 202
-5 327 3 34 1 36 -30 36 -35 0 -39 -7 -22 -39 8 -14 8 -18 0 -14 -7 5 -9 -3
-5 -24 4 -17 3 -30 -2 -29 -27 5 -33 -2 -17 -19 10 -11 23 -17 28 -14 6 3 5 0
-1 -7 -7 -7 -22 -9 -38 -5 -22 5 -27 11 -23 30 2 12 0 29 -4 36 -6 8 -9 0 -9
-24 0 -20 -6 -39 -13 -41 -6 -3 -3 -6 9 -6 11 -1 25 -6 31 -12 8 -8 17 -8 31
0 27 14 32 14 32 -4 0 -8 -4 -15 -10 -15 -5 0 -9 -6 -7 -12 1 -7 -5 -12 -15
-12 -22 2 -30 -33 -12 -51 9 -8 10 -16 4 -20 -5 -3 -10 -1 -10 5 0 6 -5 8 -10
5 -18 -11 -11 -34 11 -37 12 -2 25 -13 30 -25 6 -16 5 -21 -5 -17 -7 3 -19 -2
-26 -11 -20 -24 -30 -1 -30 68 0 31 -4 57 -10 57 -13 0 -13 -55 0 -99 5 -19 8
-37 5 -39 -2 -2 -26 -5 -53 -7 -27 -1 -54 -5 -60 -9 -6 -3 -13 -2 -17 4 -10
16 -35 11 -35 -7 -1 -11 -6 -7 -14 12 l-13 30 -8 -27 c-4 -15 -4 -31 -2 -35 3
-5 -10 -10 -29 -11 -31 -2 -48 11 -25 20 6 2 12 15 15 30 3 21 1 27 -12 26
-32 -2 -52 2 -52 12 0 5 7 7 15 4 12 -5 15 1 13 29 -3 37 -12 38 -21 2 -4 -15
-5 -13 -6 8 0 15 -5 27 -11 27 -9 0 -15 -28 -11 -57 3 -18 -10 -16 -25 4 -8
11 -13 13 -14 6 0 -18 -20 -16 -20 2 0 8 7 15 16 15 12 0 14 5 9 18 -7 16 -25
114 -28 157 -1 11 -6 23 -12 27 -6 5 -6 8 1 8 7 0 11 18 10 50 -3 61 -16 79
-16 22 0 -23 -4 -42 -8 -42 -12 0 -37 -78 -28 -87 4 -4 11 -1 16 7 8 12 10 10
10 -7 0 -12 -5 -25 -10 -28 -17 -10 -11 -23 14 -29 18 -4 23 -11 19 -26 -6
-22 -28 -27 -40 -7 -8 12 -9 18 -12 38 0 6 -7 9 -15 6 -15 -6 -16 9 -3 31 5 7
3 12 -7 12 -8 0 -18 -5 -22 -11 -14 -23 -21 13 -17 84 2 40 4 86 4 104 -1 17
3 42 8 55 l9 23 10 -25 c7 -16 11 -19 11 -9 1 9 8 19 16 23 21 8 19 33 -4 53
-19 16 -19 16 0 36 10 12 20 27 20 34 3 27 4 32 12 39 4 4 7 0 7 -9 0 -8 8
-18 18 -20 16 -4 16 -5 -1 -6 -11 -1 -17 -8 -15 -18 2 -12 -3 -18 -14 -17 -9
1 -19 -5 -22 -13 -4 -11 -1 -13 14 -8 15 5 18 3 14 -8 -3 -8 2 -22 11 -31 15
-14 15 -17 1 -22 -9 -4 -16 -18 -16 -33 0 -20 3 -22 9 -11 6 8 7 18 5 22 -3 4
-1 8 5 8 19 0 33 -50 33 -117 0 -13 4 -23 9 -23 5 0 9 -5 9 -11 0 -5 -4 -7
-10 -4 -5 3 -10 3 -10 0 0 -7 26 -35 32 -35 2 0 3 64 2 143 -1 139 9 223 25
213 5 -3 7 15 6 40 -1 30 3 48 13 53 11 6 12 12 2 30 -6 12 -12 59 -13 104 -1
57 -6 82 -14 83 -7 1 -18 2 -24 3 -5 0 -15 15 -20 31 -11 29 -41 41 -53 21 -4
-5 -25 -12 -49 -16 -46 -8 -82 -27 -109 -59 -17 -20 -17 -20 -8 14 6 19 7 43
4 52 -9 31 -8 80 4 87 6 3 14 20 18 36 4 17 3 26 -2 22 -4 -4 -14 3 -21 15 -7
13 -12 18 -13 11 0 -6 -8 -9 -19 -6 -13 3 -22 21 -31 61 -7 31 -17 62 -20 67
-11 15 -18 75 -8 75 4 0 8 -4 8 -10 0 -5 5 -10 11 -10 8 0 10 28 5 98 -9 130
-27 262 -36 257 -5 -3 -11 12 -15 33 -3 20 -9 48 -12 60 -5 22 -3 22 43 -12
27 -20 54 -40 60 -45 22 -17 52 -30 57 -24 4 3 9 -2 13 -11 7 -18 34 -22 34
-5 0 5 -13 24 -29 41 -26 28 -28 33 -14 43 9 7 13 18 10 26 -4 10 -6 9 -6 -4
-1 -23 -25 -17 -29 6 -2 10 3 17 13 17 9 0 14 4 11 8 -2 4 11 6 30 4 26 -3 34
0 34 11 0 9 -4 18 -9 22 -5 3 -8 19 -6 35 2 16 0 32 -6 35 -5 4 -9 -8 -9 -24
0 -21 -5 -31 -15 -31 -11 0 -14 7 -9 24 3 13 1 27 -5 30 -6 4 -11 2 -11 -4 0
-6 -5 -8 -11 -4 -8 5 -6 10 5 16 13 7 14 13 5 29 -6 12 -17 18 -24 15 -8 -3
-17 -1 -20 4 -4 6 -1 10 6 10 7 0 -1 15 -18 33 -17 17 -43 50 -57 71 -14 21
-26 34 -26 27 0 -6 -4 -11 -9 -11 -9 0 -23 33 -25 60 -1 8 -13 40 -28 70 -30
64 -35 127 -9 133 14 4 14 5 -1 6 -10 0 -18 6 -18 12 0 5 -5 7 -11 3 -7 -4
-10 -1 -7 7 3 8 10 13 16 12 8 -2 9 5 2 23 -13 33 -13 47 1 39 6 -4 1 11 -10
34 -12 22 -21 45 -21 50 0 20 45 80 58 76 6 -2 12 0 12 6 0 5 6 9 13 8 6 -1
23 -1 37 0 24 1 25 3 26 81 0 45 -3 77 -8 74 -5 -4 -7 -13 -3 -23 5 -12 4 -13
-6 -4 -9 9 -6 24 15 67 15 31 32 58 37 62 6 4 6 11 -2 20 -14 17 -11 21 16 24
33 4 47 1 40 -9 -3 -5 -1 -12 5 -16 5 -3 10 -1 10 6 0 7 10 9 25 7 15 -3 30 1
37 9 17 21 -7 34 -64 31 -26 -1 -51 1 -55 5 -3 4 -1 7 4 7 16 0 11 206 -5 222
-15 15 -16 58 -1 58 6 0 9 6 6 13 -4 12 17 40 25 32 2 -2 26 2 53 9 48 12 50
13 53 52 2 21 1 81 -3 132 l-7 92 -399 0 -399 0 0 -3000z m3300 2865 c0 -8 -4
-15 -10 -15 -5 0 -10 7 -10 15 0 8 5 15 10 15 6 0 10 -7 10 -15z m2100 -15
c-6 -11 -12 -20 -13 -20 -2 0 -3 9 -4 20 -1 12 4 20 13 20 12 0 12 -4 4 -20z
m-4750 -212 c0 -21 -3 -29 -10 -22 -5 5 -7 19 -4 32 9 31 14 27 14 -10z m2240
-154 c0 -14 -63 36 -96 76 -22 27 -15 23 34 -19 34 -30 62 -56 62 -57z m2860
8 l0 -99 -40 -12 c-40 -12 -48 -26 -32 -59 6 -11 4 -27 -4 -42 -8 -14 -14 -20
-15 -15 -1 6 -5 -10 -9 -35 -9 -59 -3 -83 22 -77 11 3 18 1 16 -5 -2 -5 -7 -9
-12 -8 -8 1 -35 -30 -36 -42 0 -5 8 -8 18 -8 13 0 14 -2 3 -9 -9 -6 -10 -11
-2 -15 6 -4 11 -15 11 -26 0 -22 23 -32 40 -17 8 7 -8 -14 -35 -45 -56 -66
-75 -73 -76 -25 0 17 -6 87 -12 154 -7 67 -9 119 -5 117 9 -6 9 -7 13 58 2 34
14 67 43 116 22 37 49 88 58 112 15 38 42 80 51 80 2 0 3 -44 3 -98z m-5143
33 c-12 -63 -17 -64 -23 -4 -4 28 -1 45 8 50 23 15 25 10 15 -46z m-40 23 c-3
-8 -6 -5 -6 6 -1 11 2 17 5 13 3 -3 4 -12 1 -19z m60 -20 c-3 -8 -6 -5 -6 6
-1 11 2 17 5 13 3 -3 4 -12 1 -19z m4887 0 c11 -41 6 -78 -9 -84 -14 -6 -14
-8 -1 -18 16 -12 25 -85 26 -221 0 -62 3 -85 10 -75 8 12 10 10 10 -8 0 -13
-4 -21 -8 -18 -5 3 -9 -1 -9 -9 0 -8 3 -15 7 -15 6 0 2 -181 -5 -215 -3 -11
-21 -31 -42 -45 -45 -30 -68 -50 -56 -50 4 0 -8 -14 -27 -31 -19 -17 -70 -63
-113 -102 -44 -40 -82 -73 -86 -75 -4 -1 -5 43 -3 98 l4 100 -26 0 c-15 0 -25
-3 -23 -7 2 -5 7 -17 11 -28 6 -16 9 -17 16 -5 7 10 10 -5 10 -47 0 -37 -4
-63 -10 -63 -7 0 -9 -14 -5 -37 5 -33 4 -35 -6 -19 -7 11 -11 46 -10 78 2 49
0 57 -13 52 -13 -5 -16 2 -16 34 0 31 -4 41 -20 45 -11 3 -20 9 -19 14 1 4 -1
15 -5 25 -4 9 -6 29 -4 45 3 27 6 28 60 31 52 3 59 6 64 27 7 27 -2 48 -17 40
-10 -7 -12 6 -3 29 3 9 12 16 19 16 10 0 13 22 13 90 0 78 -2 89 -14 79 -12
-10 -13 -9 -8 5 3 9 10 16 14 16 5 0 6 9 3 20 -3 11 -1 20 5 20 11 0 84 70
130 126 29 34 34 37 52 26 17 -10 20 -10 20 3 0 8 -5 15 -12 15 -6 0 -2 10 10
23 12 13 22 29 22 35 0 7 4 12 8 12 4 0 13 20 20 45 13 49 26 58 36 23z
m-4857 -10 c-3 -8 -6 -5 -6 6 -1 11 2 17 5 13 3 -3 4 -12 1 -19z m2723 -18
c16 -23 18 -28 5 -24 -19 8 -46 54 -31 54 3 0 14 -13 26 -30z m-590 -62 c0 -4
8 -8 18 -8 9 0 22 -8 29 -19 13 -21 63 -34 64 -17 0 6 5 0 10 -13 5 -13 7 -26
5 -29 -8 -7 -179 111 -184 127 -3 8 8 4 27 -10 17 -12 31 -26 31 -31z m-2124
4 c-10 -2 -22 2 -27 10 -16 24 -9 29 18 11 23 -15 24 -18 9 -21z m4499 28 c-3
-5 -11 -10 -16 -10 -6 0 -7 5 -4 10 3 6 11 10 16 10 6 0 7 -4 4 -10z m-2265
-29 c0 -7 -23 -21 -33 -21 -1 0 -3 11 -3 25 -2 21 1 23 17 14 10 -5 19 -14 19
-18z m-2295 -13 c6 -4 2 -8 -7 -8 -10 0 -18 7 -18 17 0 9 3 12 8 7 4 -5 12
-12 17 -16z m4551 -4 c8 3 14 1 14 -5 0 -6 -8 -9 -17 -7 -10 2 -23 -3 -30 -12
-11 -13 -12 -11 -13 12 0 28 23 45 28 21 2 -8 10 -12 18 -9z m-2129 -14 c-14
-11 -31 -20 -39 -20 -18 1 30 40 49 40 11 0 7 -7 -10 -20z m-540 -42 c-3 -8
-6 -5 -6 6 -1 11 2 17 5 13 3 -3 4 -12 1 -19z m-2187 -111 c0 -6 -7 -2 -15 9
-8 10 -14 28 -15 39 0 16 3 14 15 -9 8 -15 15 -33 15 -39z m4840 29 c0 -3 -4
-8 -10 -11 -5 -3 -10 -1 -10 4 0 6 5 11 10 11 6 0 10 -2 10 -4z m-4624 -58
c-15 -10 -19 -3 -10 24 7 22 7 22 14 3 4 -11 3 -23 -4 -27z m1824 28 c0 -3 -4
-8 -10 -11 -5 -3 -10 -1 -10 4 0 6 5 11 10 11 6 0 10 -2 10 -4z m20 -31 c0
-16 -6 -25 -15 -25 -20 0 -78 -29 -87 -44 -6 -8 -8 -8 -8 0 0 13 35 46 42 39
2 -3 17 9 33 25 16 17 30 30 32 30 2 0 3 -11 3 -25z m585 -5 c-4 -12 -9 -19
-12 -17 -3 3 -2 15 2 27 4 12 9 19 12 17 3 -3 2 -15 -2 -27z m2265 0 c0 -5 -5
-10 -11 -10 -5 0 -7 5 -4 10 3 6 8 10 11 10 2 0 4 -4 4 -10z m-2536 -26 c3 -8
2 -12 -4 -9 -6 3 -10 10 -10 16 0 14 7 11 14 -7z m443 -6 c-3 -8 -6 -5 -6 6
-1 11 2 17 5 13 3 -3 4 -12 1 -19z m2059 -4 c-4 -9 0 -27 8 -39 13 -20 13 -24
1 -29 -7 -2 -16 0 -19 7 -2 7 -5 1 -5 -12 -1 -20 1 -21 14 -11 20 17 45 5 45
-20 0 -26 -37 -100 -50 -100 -11 0 -1 32 13 41 15 11 0 26 -24 24 -20 -1 -23
-8 -26 -59 -3 -49 -1 -57 12 -52 8 3 15 2 15 -3 0 -5 11 -12 25 -15 39 -10 20
-26 -31 -26 -34 0 -46 4 -50 18 -3 9 -10 25 -15 34 -12 23 -12 37 1 18 6 -10
8 -3 7 23 -1 20 -6 37 -12 38 -5 0 -1 4 10 9 17 7 17 9 3 9 -10 1 -18 5 -18
10 0 17 20 23 35 11 12 -10 15 -10 15 2 0 8 -5 19 -10 24 -13 13 -2 44 15 44
7 0 18 7 25 15 9 10 9 15 1 15 -6 0 -11 9 -11 20 0 12 7 20 16 20 11 0 14 -5
10 -16z m-76 -19 c-10 -12 -10 -18 0 -30 10 -13 9 -15 -9 -15 -16 0 -21 -6
-21 -26 0 -14 -4 -23 -10 -19 -18 11 -11 57 13 80 25 26 46 33 27 10z m-2406
-11 c3 -8 2 -12 -4 -9 -6 3 -10 10 -10 16 0 14 7 11 14 -7z m256 12 c0 -3 -4
-8 -10 -11 -5 -3 -10 -1 -10 4 0 6 5 11 10 11 6 0 10 -2 10 -4z m202 -43 c-6
-18 -22 -16 -22 1 0 8 -3 22 -7 32 -6 15 -4 15 14 -2 11 -10 18 -25 15 -31z
m-222 7 c0 -5 -5 -10 -11 -10 -5 0 -7 5 -4 10 3 6 8 10 11 10 2 0 4 -4 4 -10z
m-210 -20 c6 -11 8 -20 6 -20 -3 0 -10 9 -16 20 -6 11 -8 20 -6 20 3 0 10 -9
16 -20z m2320 0 c0 -5 -2 -10 -4 -10 -3 0 -8 5 -11 10 -3 6 -1 10 4 10 6 0 11
-4 11 -10z m-2721 -68 c-11 -4 -77 17 -83 27 -3 4 17 0 44 -8 27 -9 44 -17 39
-19z m1031 15 c0 -7 -4 -6 -10 3 -8 12 -10 10 -11 -10 0 -14 -3 -19 -6 -12 -7
18 5 44 17 37 5 -3 10 -12 10 -18z m60 3 c0 -5 -9 -10 -20 -10 -11 0 -20 5
-20 10 0 6 9 10 20 10 11 0 20 -4 20 -10z m1625 0 c-3 -5 -14 -10 -23 -9 -14
0 -13 2 3 9 27 11 27 11 20 0z m-2641 -39 c19 -11 36 -17 39 -14 3 2 14 0 24
-6 15 -7 27 -5 52 10 52 32 57 17 7 -19 l-46 -33 -29 20 c-16 12 -33 21 -38
21 -4 0 -21 9 -38 20 -39 26 -16 26 29 1z m709 -11 c-3 -12 -8 -19 -11 -16 -5
6 5 36 12 36 2 0 2 -9 -1 -20z m325 0 c-1 -3 2 -13 6 -22 4 -9 6 -25 4 -35 -4
-14 -9 -9 -23 19 -10 20 -25 39 -34 42 -9 2 -2 4 16 3 17 -1 31 -4 31 -7z
m-617 -27 c13 -16 12 -17 -3 -4 -17 13 -22 21 -14 21 2 0 10 -8 17 -17z m40
-55 l23 -33 -27 24 c-15 14 -27 28 -27 33 0 15 8 8 31 -24z m-2389 -23 c-4 -5
-7 -14 -7 -20 0 -5 -3 -11 -7 -12 -18 -6 -28 -2 -39 20 -11 20 -11 21 5 8 15
-13 19 -13 27 0 5 8 9 21 9 29 0 13 2 13 9 0 6 -8 7 -19 3 -25z m3157 -70 c8
-8 13 -17 10 -19 -6 -6 -105 26 -116 38 -14 15 91 -3 106 -19z m-3134 -55 c3
-5 1 -10 -4 -10 -6 0 -11 5 -11 10 0 6 2 10 4 10 3 0 8 -4 11 -10z m-361 -62
c5 -32 4 -48 -3 -48 -6 0 -11 8 -11 18 0 10 -6 24 -12 31 -10 11 -10 14 0 18
6 3 12 12 12 21 0 28 7 8 14 -40z m5463 30 c-3 -8 -6 -5 -6 6 -1 11 2 17 5 13
3 -3 4 -12 1 -19z m-2090 -24 c-3 -3 -12 -4 -19 -1 -8 3 -5 6 6 6 11 1 17 -2
13 -5z m-3317 -75 c0 -6 -6 -7 -12 -4 -7 4 -6 0 2 -7 8 -7 26 -33 39 -57 19
-35 20 -45 10 -52 -10 -6 -10 -9 -2 -9 6 0 15 5 18 11 13 20 132 -246 137
-308 1 -6 11 -14 24 -17 18 -5 22 -12 21 -46 -2 -48 -17 -54 -17 -6 0 25 -5
35 -20 39 -15 4 -20 0 -20 -14 0 -10 4 -19 9 -19 6 0 8 -10 6 -21 -6 -32 -12
-33 -19 -4 -4 14 -12 25 -19 25 -8 0 -8 3 2 9 13 9 19 56 8 68 -3 3 -17 3 -30
0 -27 -7 -46 -69 -46 -151 0 -34 -5 -53 -16 -58 -17 -10 -21 -38 -4 -38 22 0
3 -34 -23 -41 -22 -6 -30 -2 -45 19 -9 15 -16 30 -15 35 1 4 -2 7 -8 7 -14 0
-12 -13 5 -36 18 -24 19 -37 3 -31 -7 2 -13 8 -13 13 -2 32 -18 55 -35 51 -16
-4 -20 3 -26 51 -4 31 -4 124 -2 208 3 85 2 156 -4 162 -5 5 -3 22 5 40 7 18
16 30 19 26 4 -3 2 13 -3 36 -7 33 -6 46 7 63 l16 22 -5 -27 c-2 -16 0 -28 4
-28 5 0 8 21 7 46 -1 30 4 49 12 54 16 10 30 4 30 -11z m5357 -96 c-3 -10 -5
-2 -5 17 0 19 2 27 5 18 2 -10 2 -26 0 -35z m-4927 -84 c0 -17 -4 -28 -10 -24
-5 3 -10 17 -10 31 0 13 5 24 10 24 6 0 10 -14 10 -31z m-173 -11 c-3 -8 -6
-5 -6 6 -1 11 2 17 5 13 3 -3 4 -12 1 -19z m126 -42 c-3 -4 -9 -2 -14 5 -13
22 -11 31 5 17 8 -7 12 -17 9 -22z m5024 -8 c-3 -8 -6 -5 -6 6 -1 11 2 17 5
13 3 -3 4 -12 1 -19z m-4987 3 c0 -6 -4 -12 -8 -15 -5 -3 -9 1 -9 9 0 8 4 15
9 15 4 0 8 -4 8 -9z m-190 -33 c0 -16 -3 -19 -11 -11 -6 6 -8 16 -5 22 11 17
16 13 16 -11z m213 -3 c-7 -21 -13 -19 -13 6 0 11 4 18 10 14 5 -3 7 -12 3
-20z m51 10 c-4 -8 -8 -15 -10 -15 -2 0 -4 7 -4 15 0 8 4 15 10 15 5 0 7 -7 4
-15z m4284 -49 c-10 -7 -18 -19 -18 -27 0 -12 -2 -12 -9 0 -10 15 12 40 34 40
6 0 2 -6 -7 -13z m-4501 -35 c23 -33 21 -61 -3 -61 -16 0 -16 -5 -8 -37 4 -13
12 -23 19 -23 21 0 30 -59 11 -78 -14 -14 -16 -13 -27 14 -6 16 -11 41 -10 55
1 16 -5 29 -15 33 -9 3 -14 13 -10 21 3 8 1 17 -5 20 -5 4 -7 11 -4 16 4 5 -1
16 -9 24 -14 14 -13 18 2 35 21 25 31 22 59 -19z m57 -5 c-5 -14 -2 -18 9 -13
12 4 16 -5 20 -46 3 -29 8 -76 11 -105 4 -40 3 -53 -7 -49 -7 2 -13 24 -13 53
-1 27 -4 58 -7 69 -3 11 -6 28 -6 38 -1 9 -8 17 -17 17 -11 0 -15 8 -13 33 2
17 5 36 7 41 8 15 22 -19 16 -38z m186 4 c0 -5 7 -7 15 -4 26 11 16 -11 -12
-23 -44 -21 -56 -17 -37 12 16 25 34 33 34 15z m2008 -21 c-3 -8 -7 -3 -11 10
-4 17 -3 21 5 13 5 -5 8 -16 6 -23z m-2078 -28 c0 -14 -18 -23 -30 -16 -6 4
-8 11 -5 16 8 12 35 12 35 0z m4294 -8 c3 -10 8 -23 11 -29 4 -7 -4 -11 -21
-11 -16 0 -21 2 -14 7 7 4 9 16 5 29 -8 25 10 29 19 4z m669 3 c4 -10 1 -13
-9 -9 -15 6 -19 23 -5 23 5 0 11 -7 14 -14z m128 -52 c9 -11 8 -14 -5 -14 -9
0 -16 6 -16 14 0 8 -4 16 -10 18 -5 2 -7 14 -3 28 l7 25 7 -28 c4 -16 13 -35
20 -43z m-5044 20 c-3 -3 -12 -4 -19 -1 -8 3 -5 6 6 6 11 1 17 -2 13 -5z
m2081 -49 c0 -38 -16 -46 -42 -19 -24 23 -19 42 12 47 15 2 28 5 29 6 0 0 1
-15 1 -34z m2932 19 c0 -10 -6 -14 -14 -11 -8 3 -17 -1 -19 -9 -3 -9 -4 -7 -3
3 1 10 8 17 14 16 7 -2 12 2 12 7 0 6 2 10 5 10 3 0 5 -7 5 -16z m-90 -92 c0
-15 -2 -15 -10 -2 -13 20 -13 33 0 25 6 -3 10 -14 10 -23z m-586 -38 c22 -8
20 -19 -4 -21 -11 -1 -20 4 -20 13 0 16 2 16 24 8z m-4484 -34 c0 -18 -3 -19
-20 -10 -22 12 -18 30 6 30 8 0 14 -9 14 -20z m-246 -46 c3 -8 2 -12 -4 -9 -6
3 -10 10 -10 16 0 14 7 11 14 -7z m106 -45 c0 -16 -14 -9 -45 22 l-30 31 38
-22 c20 -12 37 -26 37 -31z m122 29 c-3 -12 -7 -17 -10 -10 -2 6 -11 12 -20
13 -14 0 -13 2 3 9 31 13 34 12 27 -12z m-35 -48 c-4 -17 -2 -30 3 -30 6 0 10
-7 10 -16 0 -20 -34 -14 -38 7 -3 18 14 69 24 69 4 0 4 -13 1 -30z m23 -89 c0
-4 -7 -8 -15 -8 -16 0 -20 9 -9 20 8 8 24 -1 24 -12z m3477 -267 c-3 -3 -12
-4 -19 -1 -8 3 -5 6 6 6 11 1 17 -2 13 -5z m1221 -34 c2 -26 -3 -32 -35 -45
-21 -9 -51 -15 -68 -13 l-30 3 37 18 c20 11 42 16 48 12 7 -4 16 6 23 24 14
39 22 39 25 1z m-4757 -36 c-9 -28 -9 -29 -10 -3 -1 14 2 29 6 32 11 12 13 2
4 -29z m227 0 c-10 -10 -28 6 -28 24 0 15 1 15 17 -1 9 -9 14 -19 11 -23z
m-288 6 c0 -5 -2 -10 -4 -10 -3 0 -8 5 -11 10 -3 6 -1 10 4 10 6 0 11 -4 11
-10z m2340 -60 c0 -5 -4 -10 -10 -10 -5 0 -10 5 -10 10 0 6 5 10 10 10 6 0 10
-4 10 -10z m-1782 -93 c7 -5 11 -16 10 -23 -2 -7 6 -19 17 -28 19 -14 19 -15
1 -35 -18 -20 -18 -22 -3 -39 22 -24 21 -41 0 -59 -10 -8 -12 -12 -5 -8 7 3
12 0 12 -8 0 -22 -10 -26 -41 -15 -22 8 -29 16 -28 36 0 21 2 23 8 9 5 -14 9
-9 17 22 10 35 9 40 -8 44 -10 3 -18 10 -18 17 0 6 4 8 10 5 5 -3 18 -1 27 4
17 10 17 10 -1 11 -13 0 -16 4 -9 13 17 23 8 42 -25 53 -18 5 -30 13 -27 16 8
7 46 -2 63 -15z m4362 -27 c-14 -4 -34 -8 -45 -9 -16 -1 -17 1 -5 9 8 5 29 9
45 9 29 -1 29 -1 5 -9z m73 3 c-7 -2 -21 -2 -30 0 -10 3 -4 5 12 5 17 0 24 -2
18 -5z m-2067 -44 c3 -6 15 -9 25 -6 11 3 19 1 19 -4 0 -5 -18 -9 -40 -9 -29
0 -40 4 -40 15 0 17 26 20 36 4z m494 -74 c0 -2 -10 -9 -22 -15 -22 -11 -22
-10 -4 4 21 17 26 19 26 11z m-2946 -70 c-4 -8 -16 -15 -28 -15 -20 0 -20 1 4
14 14 8 26 14 27 15 1 1 0 -6 -3 -14z m-97 -24 c0 -11 -5 -17 -9 -15 -4 3 -8
0 -8 -7 0 -7 -3 -10 -6 -7 -4 5 16 48 23 48 1 0 1 -9 0 -19z m31 -56 c-5 -11
-11 -28 -14 -37 -4 -10 -10 -18 -16 -18 -5 0 -4 9 2 20 7 14 7 20 0 20 -5 0
-10 8 -10 17 0 15 2 14 14 -3 11 -14 14 -15 14 -4 -1 8 0 29 1 45 3 30 3 30
10 5 4 -14 4 -34 -1 -45z m166 57 c2 -4 -10 -12 -28 -18 -28 -9 -33 -8 -29 6
4 16 48 26 57 12z m0 -47 c-7 -18 -30 -20 -40 -3 -4 6 -3 8 2 5 6 -3 16 -2 24
4 20 12 20 11 14 -6z m4359 -17 c4 -32 -5 -48 -30 -48 -14 0 -18 61 -6 73 15
16 31 5 36 -25z m-4542 -111 c-1 -12 -15 -9 -19 4 -3 6 1 10 8 8 6 -3 11 -8
11 -12z m146 -49 c-3 -8 -6 -5 -6 6 -1 11 2 17 5 13 3 -3 4 -12 1 -19z m4403
-30 c0 -4 -7 -8 -15 -8 -8 0 -15 4 -15 8 0 5 7 9 15 9 8 0 15 -4 15 -9z m-113
-113 c2 -42 -13 -38 -19 5 -3 17 0 30 6 30 6 0 12 -16 13 -35z m-3807 -65 c0
-20 -5 -30 -15 -30 -11 0 -12 5 -5 24 5 13 6 27 3 30 -4 3 -1 6 5 6 7 0 12
-13 12 -30z m3550 6 c0 -8 -4 -18 -10 -21 -5 -3 -10 3 -10 14 0 12 5 21 10 21
6 0 10 -6 10 -14z m265 -46 c3 -5 1 -10 -4 -10 -6 0 -11 5 -11 10 0 6 2 10 4
10 3 0 8 -4 11 -10z m-3815 -69 c0 -6 -4 -13 -10 -16 -5 -3 -10 1 -10 9 0 9 5
16 10 16 6 0 10 -4 10 -9z m264 -116 c2 -7 -2 -16 -10 -19 -8 -3 -14 0 -14 6
0 7 -6 6 -16 -2 -13 -12 -14 -10 -3 13 12 26 33 27 43 2z m-706 -37 c-3 -7
-13 -15 -23 -16 -15 -4 -16 -2 -4 12 17 19 32 21 27 4z m812 -39 c0 -10 -5
-19 -12 -19 -6 0 -8 3 -5 6 3 4 2 15 -4 25 -7 15 -6 17 6 13 8 -4 15 -15 15
-25z m-675 -57 c-3 -3 -11 0 -18 7 -9 10 -8 11 6 5 10 -3 15 -9 12 -12z m-831
-67 c-19 -14 -18 -14 4 -15 22 0 22 -2 22 -130 0 -130 0 -130 -24 -130 -23 0
-23 1 -18 93 2 50 0 109 -6 130 -8 30 -7 40 5 52 8 8 19 15 26 15 6 0 2 -7 -9
-15z m-91 -5 c-27 -11 -30 -25 -7 -34 12 -5 15 -20 13 -81 -2 -42 -7 -81 -11
-88 -5 -8 -8 -7 -8 6 0 9 -4 17 -8 17 -4 0 -5 -25 -2 -55 3 -30 3 -55 0 -55
-3 0 -13 17 -22 38 -19 44 -35 251 -16 215 12 -26 31 -32 21 -8 -7 19 24 55
46 54 10 0 8 -3 -6 -9z m4632 -20 c7 -11 -6 -13 -29 -4 -9 3 -16 13 -16 20 0
11 4 12 19 4 11 -5 23 -15 26 -20z m-3382 13 c-7 -2 -19 -2 -25 0 -7 3 -2 5
12 5 14 0 19 -2 13 -5z m317 -9 c0 -8 -4 -12 -10 -9 -5 3 -10 10 -10 16 0 5 5
9 10 9 6 0 10 -7 10 -16z m-1400 -76 c-1 -97 -15 -87 -23 15 -4 53 -2 67 9 67
11 0 14 -19 14 -82z m1237 40 c-3 -7 -5 -2 -5 12 0 14 2 19 5 13 2 -7 2 -19 0
-25z m-484 -16 c-2 -7 6 -12 16 -12 38 0 31 -18 -10 -25 -46 -8 -57 -2 -40 19
7 8 10 20 6 27 -5 7 -1 9 11 7 11 -2 18 -10 17 -16z m3625 -4 c-3 -7 -13 -15
-24 -17 -16 -3 -17 -1 -5 13 16 19 34 21 29 4z m-168 -53 c0 -1 -7 -8 -15 -15
-13 -10 -15 -9 -15 8 0 15 5 20 15 16 8 -4 15 -7 15 -9z m-4373 -152 c-3 -10
-5 -2 -5 17 0 19 2 27 5 18 2 -10 2 -26 0 -35z m149 31 c-9 -8 -13 -20 -10
-26 4 -6 2 -8 -4 -5 -14 10 -3 47 15 47 12 0 12 -3 -1 -16z m3869 -63 c3 -5 1
-12 -5 -16 -5 -3 -10 1 -10 9 0 18 6 21 15 7z m251 -6 c-7 -19 3 -47 15 -39 5
3 6 -3 2 -12 -4 -11 -8 -13 -11 -6 -2 7 -8 10 -13 6 -5 -3 -9 4 -9 15 0 22 10
51 17 51 3 0 3 -7 -1 -15z m-223 -84 c-4 -16 -8 -19 -14 -10 -4 7 -3 19 3 26
14 18 19 12 11 -16z m267 -17 c0 -8 -19 -13 -24 -6 -3 5 1 9 9 9 8 0 15 -2 15
-3z m-87 -84 c3 -11 1 -18 -4 -14 -5 3 -9 12 -9 20 0 20 7 17 13 -6z m103 -62
c-3 -24 -5 -48 -5 -55 -1 -6 -10 -9 -20 -6 -23 6 -35 44 -18 55 9 6 9 8 0 8
-7 0 -13 6 -13 14 0 15 15 24 43 25 15 1 17 -5 13 -41z m-3264 7 c-2 -14 -6
-25 -8 -25 -2 0 -4 11 -4 25 0 14 4 25 9 25 4 0 6 -11 3 -25z m43 5 c3 -5 1
-10 -4 -10 -6 0 -11 5 -11 10 0 6 2 10 4 10 3 0 8 -4 11 -10z m62 -22 c-3 -7
-5 -2 -5 12 0 14 2 19 5 13 2 -7 2 -19 0 -25z m3064 -31 c-8 -8 -11 -5 -11 9
0 27 14 41 18 19 2 -9 -1 -22 -7 -28z m-3121 25 c0 -4 -9 -8 -19 -8 -11 0 -17
4 -15 8 3 4 12 8 20 8 8 0 14 -4 14 -8z m40 4 c0 -3 -4 -8 -10 -11 -5 -3 -10
-1 -10 4 0 6 5 11 10 11 6 0 10 -2 10 -4z m3438 -17 c-2 -6 -8 -10 -13 -10 -5
0 -11 4 -13 10 -2 6 4 11 13 11 9 0 15 -5 13 -11z m-3413 -9 c-3 -5 -11 -10
-16 -10 -6 0 -7 5 -4 10 3 6 11 10 16 10 6 0 7 -4 4 -10z m3015 -10 c0 -5 -4
-10 -9 -10 -6 0 -13 5 -16 10 -3 6 1 10 9 10 9 0 16 -4 16 -10z m-3040 -26 c0
-8 -4 -12 -10 -9 -5 3 -10 10 -10 16 0 5 5 9 10 9 6 0 10 -7 10 -16z m3460
-24 c0 -5 -7 -10 -16 -10 -8 0 -12 5 -9 10 3 6 10 10 16 10 5 0 9 -4 9 -10z
m-5 -30 c3 -5 1 -10 -4 -10 -6 0 -11 5 -11 10 0 6 2 10 4 10 3 0 8 -4 11 -10z
m-255 -30 c0 -5 -4 -10 -9 -10 -6 0 -13 5 -16 10 -3 6 1 10 9 10 9 0 16 -4 16
-10z m670 -680 c0 -11 -7 -20 -15 -20 -8 0 -15 2 -15 4 0 2 -3 11 -6 20 -4 12
0 16 15 16 14 0 21 -6 21 -20z m110 16 c0 -2 -16 -6 -35 -8 -19 -2 -35 0 -35
4 0 4 16 8 35 8 19 0 35 -2 35 -4z m50 -11 c0 -8 -7 -15 -15 -15 -8 0 -15 7
-15 15 0 8 7 15 15 15 8 0 15 -7 15 -15z m90 -5 c0 -11 -4 -20 -10 -20 -5 0
-10 9 -10 20 0 11 5 20 10 20 6 0 10 -9 10 -20z m17 -2 c-3 -8 -6 -5 -6 6 -1
11 2 17 5 13 3 -3 4 -12 1 -19z m40 0 c-3 -8 -6 -5 -6 6 -1 11 2 17 5 13 3 -3
4 -12 1 -19z"/>
<path d="M5465 5150 c-3 -5 -1 -10 4 -10 6 0 11 5 11 10 0 6 -2 10 -4 10 -3 0
-8 -4 -11 -10z"/>
<path d="M225 4500 c3 -5 8 -10 11 -10 2 0 4 5 4 10 0 6 -5 10 -11 10 -5 0 -7
-4 -4 -10z"/>
<path d="M307 4269 c4 -13 8 -18 11 -10 2 7 -1 18 -6 23 -8 8 -9 4 -5 -13z"/>
<path d="M260 2015 c0 -8 2 -15 4 -15 2 0 6 7 10 15 3 8 1 15 -4 15 -6 0 -10
-7 -10 -15z"/>
<path d="M155 2170 c-4 -6 -13 -9 -20 -6 -10 4 -11 -2 -4 -26 12 -44 15 -44
29 -3 12 36 9 57 -5 35z"/>
<path d="M4548 5993 c6 -2 12 -11 12 -18 0 -7 11 -15 25 -17 14 -3 25 -2 25 2
0 3 27 4 60 2 58 -4 60 -4 60 19 -1 22 -2 23 -14 7 -16 -22 -27 -23 -20 -3 5
11 -1 15 -26 15 -20 0 -29 -4 -24 -11 5 -8 1 -8 -14 0 -11 6 -38 11 -59 10
-21 0 -32 -3 -25 -6z"/>
<path d="M4740 5983 c0 -12 7 -19 20 -19 25 0 23 29 -3 34 -11 2 -17 -3 -17
-15z"/>
<path d="M4895 5987 c-36 -14 -48 -29 -32 -39 10 -7 -155 -14 -205 -9 -9 1
-19 -3 -23 -9 -4 -6 7 -11 27 -11 26 -1 28 -3 8 -6 -14 -2 -35 -9 -47 -15 -28
-14 -39 -6 -19 15 13 13 12 15 -9 15 -19 0 -27 -10 -44 -49 -11 -27 -16 -49
-10 -49 13 0 11 -28 -3 -32 -7 -3 -9 -11 -3 -24 4 -10 7 -30 6 -44 -2 -14 0
-22 4 -19 3 4 8 28 10 54 2 26 6 50 9 53 8 7 8 -7 6 -101 -1 -54 2 -77 9 -72
6 3 11 -1 11 -9 0 -23 165 -23 174 -1 3 8 1 15 -4 15 -6 0 -10 -4 -10 -10 0
-5 -4 -10 -10 -10 -5 0 -10 16 -10 35 0 38 10 44 34 19 16 -15 20 -28 17 -51
-1 -10 33 -13 145 -13 l146 0 -5 188 -6 187 -45 3 c-36 2 -46 0 -46 -12 0 -20
-19 -21 -26 -1 -7 17 -8 17 -49 2z m15 -32 c0 -8 -4 -15 -10 -15 -5 0 -10 7
-10 15 0 8 5 15 10 15 6 0 10 -7 10 -15z m85 -14 c3 -5 1 -12 -5 -16 -5 -3
-10 1 -10 9 0 18 6 21 15 7z m-125 -62 c0 -5 -7 -9 -15 -9 -15 0 -20 12 -9 23
8 8 24 -1 24 -14z m-287 -35 c-6 -15 -33 -20 -33 -5 0 5 3 17 6 25 5 13 10 14
20 6 7 -7 10 -18 7 -26z m182 25 c-9 -13 14 -99 26 -99 5 0 9 -4 9 -9 0 -5
-12 -8 -26 -7 -32 4 -51 31 -35 50 6 8 9 21 5 30 -3 9 -1 23 6 31 14 17 24 20
15 4z m75 -19 c0 -5 -2 -10 -4 -10 -3 0 -8 5 -11 10 -3 6 -1 10 4 10 6 0 11
-4 11 -10z m-20 -30 c0 -5 -4 -10 -10 -10 -5 0 -10 5 -10 10 0 6 5 10 10 10 6
0 10 -4 10 -10z m-80 -96 c0 -8 -5 -12 -10 -9 -6 4 -8 11 -5 16 9 14 15 11 15
-7z m-70 -69 c0 -8 -4 -15 -10 -15 -5 0 -7 7 -4 15 4 8 8 15 10 15 2 0 4 -7 4
-15z"/>
<path d="M4420 5780 c0 -5 5 -10 10 -10 6 0 10 5 10 10 0 6 -4 10 -10 10 -5 0
-10 -4 -10 -10z"/>
<path d="M4492 5710 c0 -14 2 -19 5 -12 2 6 2 18 0 25 -3 6 -5 1 -5 -13z"/>
<path d="M4540 5689 c0 -5 5 -7 10 -4 6 3 10 8 10 11 0 2 -4 4 -10 4 -5 0 -10
-5 -10 -11z"/>
<path d="M2517 5543 c-12 -12 -7 -22 8 -17 8 4 15 10 15 15 0 11 -14 12 -23 2z"/>
<path d="M2490 5490 c0 -5 5 -10 11 -10 5 0 7 5 4 10 -3 6 -8 10 -11 10 -2 0
-4 -4 -4 -10z"/>
<path d="M2258 5419 c-10 -5 -18 -17 -18 -24 0 -23 16 -17 28 10 6 14 11 25 9
25 -1 0 -10 -5 -19 -11z"/>
<path d="M2182 5345 c0 -16 2 -22 5 -12 2 9 2 23 0 30 -3 6 -5 -1 -5 -18z"/>
<path d="M2210 5350 c0 -26 17 -34 23 -11 3 12 -1 22 -9 25 -9 3 -14 -2 -14
-14z"/>
<path d="M2063 5353 c-14 -5 -18 -33 -5 -33 4 0 13 9 20 20 12 20 8 23 -15 13z"/>
<path d="M2085 5310 c-3 -5 -1 -10 4 -10 6 0 11 5 11 10 0 6 -2 10 -4 10 -3 0
-8 -4 -11 -10z"/>
<path d="M2025 5280 c-3 -5 -1 -10 4 -10 6 0 11 5 11 10 0 6 -2 10 -4 10 -3 0
-8 -4 -11 -10z"/>
<path d="M2040 5249 c0 -5 5 -7 10 -4 6 3 10 8 10 11 0 2 -4 4 -10 4 -5 0 -10
-5 -10 -11z"/>
<path d="M1980 5224 c0 -28 15 -25 23 6 3 13 0 20 -9 20 -8 0 -14 -10 -14 -26z"/>
<path d="M5067 5229 c-17 -10 -23 -29 -9 -29 5 0 16 6 27 13 22 17 7 29 -18
16z"/>
<path d="M5035 5180 c-3 -5 -2 -10 4 -10 5 0 13 5 16 10 3 6 2 10 -4 10 -5 0
-13 -4 -16 -10z"/>
<path d="M4926 5057 c-17 -12 -15 -14 17 -15 28 -1 35 2 30 13 -7 19 -24 19
-47 2z"/>
<path d="M5007 5003 c-3 -5 -7 -24 -9 -43 -2 -27 1 -35 15 -38 21 -4 35 27 17
38 -7 4 -10 17 -7 29 5 20 -7 30 -16 14z"/>
<path d="M570 4991 c0 -7 -5 -9 -12 -5 -6 4 -8 3 -4 -4 3 -5 0 -13 -6 -15 -8
-4 -9 -6 -2 -6 15 -1 39 28 30 36 -3 3 -6 1 -6 -6z"/>
<path d="M575 4933 c-16 -16 -16 -17 0 -29 10 -7 21 -28 26 -46 l8 -33 -5 35
c-2 19 -6 47 -7 63 -2 32 -1 31 -22 10z"/>
<path d="M611 4934 c0 -11 3 -14 6 -6 3 7 2 16 -1 19 -3 4 -6 -2 -5 -13z"/>
<path d="M4201 4864 c0 -11 3 -14 6 -6 3 7 2 16 -1 19 -3 4 -6 -2 -5 -13z"/>
<path d="M4808 4593 c6 -2 18 -2 25 0 6 3 1 5 -13 5 -14 0 -19 -2 -12 -5z"/>
<path d="M1422 4455 c0 -16 2 -22 5 -12 2 9 2 23 0 30 -3 6 -5 -1 -5 -18z"/>
<path d="M1442 4448 c5 -15 28 -18 29 -3 0 6 -7 12 -17 13 -10 3 -15 -1 -12
-10z"/>
<path d="M1350 4440 c0 -5 5 -10 11 -10 5 0 7 5 4 10 -3 6 -8 10 -11 10 -2 0
-4 -4 -4 -10z"/>
<path d="M1110 4376 c0 -2 7 -7 16 -10 8 -3 12 -2 9 4 -6 10 -25 14 -25 6z"/>
<path d="M960 4078 c0 -16 5 -28 10 -28 13 0 13 20 0 40 -8 12 -10 9 -10 -12z"/>
<path d="M4161 4074 c0 -11 3 -14 6 -6 3 7 2 16 -1 19 -3 4 -6 -2 -5 -13z"/>
<path d="M4670 4060 c0 -5 5 -10 11 -10 5 0 7 5 4 10 -3 6 -8 10 -11 10 -2 0
-4 -4 -4 -10z"/>
<path d="M836 4047 c3 -10 9 -15 12 -12 3 3 0 11 -7 18 -10 9 -11 8 -5 -6z"/>
<path d="M4625 4030 c3 -5 8 -10 11 -10 2 0 4 5 4 10 0 6 -5 10 -11 10 -5 0
-7 -4 -4 -10z"/>
<path d="M4750 4024 c0 -8 5 -12 10 -9 6 4 8 11 5 16 -9 14 -15 11 -15 -7z"/>
<path d="M4725 4010 c-3 -5 -1 -10 4 -10 6 0 11 5 11 10 0 6 -2 10 -4 10 -3 0
-8 -4 -11 -10z"/>
<path d="M4469 3983 c-13 -17 -13 -17 6 -3 11 8 22 16 24 17 2 2 0 3 -6 3 -6
0 -17 -8 -24 -17z"/>
<path d="M4510 3950 c-46 -38 -31 -38 22 0 22 17 35 30 27 30 -8 0 -30 -14
-49 -30z"/>
<path d="M5040 3970 c0 -5 5 -10 10 -10 6 0 10 5 10 10 0 6 -4 10 -10 10 -5 0
-10 -4 -10 -10z"/>
<path d="M5140 3905 c0 -12 5 -26 11 -32 7 -7 7 -13 0 -17 -14 -9 -2 -36 16
-36 15 0 13 16 -13 74 -10 24 -13 26 -14 11z"/>
<path d="M1210 3814 c0 -22 2 -25 15 -14 12 10 13 16 4 26 -16 20 -19 18 -19
-12z"/>
<path d="M4425 3830 c-3 -5 -1 -10 4 -10 6 0 11 5 11 10 0 6 -2 10 -4 10 -3 0
-8 -4 -11 -10z"/>
<path d="M1256 3819 c5 -9 40 -7 50 3 3 4 -8 6 -25 6 -17 -1 -28 -5 -25 -9z"/>
<path d="M5115 3814 c2 -4 0 -15 -5 -25 -10 -17 -4 -49 9 -49 8 0 6 69 -3 75
-3 3 -4 2 -1 -1z"/>
<path d="M5081 3764 c0 -11 3 -14 6 -6 3 7 2 16 -1 19 -3 4 -6 -2 -5 -13z"/>
<path d="M5140 3765 c0 -8 4 -15 10 -15 5 0 7 7 4 15 -4 8 -8 15 -10 15 -2 0
-4 -7 -4 -15z"/>
<path d="M5172 3740 c0 -14 2 -19 5 -12 2 6 2 18 0 25 -3 6 -5 1 -5 -13z"/>
<path d="M1480 3679 c0 -5 5 -7 10 -4 6 3 10 8 10 11 0 2 -4 4 -10 4 -5 0 -10
-5 -10 -11z"/>
<path d="M5132 3630 c0 -14 2 -19 5 -12 2 6 2 18 0 25 -3 6 -5 1 -5 -13z"/>
<path d="M5096 3625 c4 -8 10 -12 15 -9 14 8 10 24 -6 24 -9 0 -12 -6 -9 -15z"/>
<path d="M4370 3611 c0 -10 24 -21 43 -21 7 0 3 7 -7 15 -22 17 -36 19 -36 6z"/>
<path d="M731 3554 c0 -11 3 -14 6 -6 3 7 2 16 -1 19 -3 4 -6 -2 -5 -13z"/>
<path d="M1513 3541 c-6 -3 -13 -26 -16 -51 -5 -34 -4 -39 3 -21 9 19 13 21
25 11 18 -15 21 1 5 30 -8 15 -6 17 10 13 11 -3 20 -1 20 5 0 12 -34 22 -47
13z"/>
<path d="M752 3505 c0 -16 2 -22 5 -12 2 9 2 23 0 30 -3 6 -5 -1 -5 -18z"/>
<path d="M1447 3490 c3 -11 7 -20 9 -20 2 0 4 9 4 20 0 11 -4 20 -9 20 -5 0
-7 -9 -4 -20z"/>
<path d="M780 3460 c0 -13 5 -18 15 -14 12 5 13 10 4 20 -15 19 -19 18 -19 -6z"/>
<path d="M1451 3424 c0 -11 3 -14 6 -6 3 7 2 16 -1 19 -3 4 -6 -2 -5 -13z"/>
<path d="M1000 3010 c0 -5 5 -10 10 -10 6 0 10 5 10 10 0 6 -4 10 -10 10 -5 0
-10 -4 -10 -10z"/>
<path d="M1311 2917 c-16 -16 -14 -27 4 -21 9 4 15 0 15 -9 0 -8 9 -17 21 -20
15 -4 19 -2 15 10 -3 8 -6 18 -6 21 0 4 -8 12 -19 19 -14 9 -21 9 -30 0z"/>
<path d="M988 2913 c7 -3 16 -2 19 1 4 3 -2 6 -13 5 -11 0 -14 -3 -6 -6z"/>
<path d="M1310 2836 c0 -2 8 -10 18 -17 15 -13 16 -12 3 4 -13 16 -21 21 -21
13z"/>
<path d="M1374 2803 c3 -21 19 -27 53 -18 l26 6 -28 15 c-36 19 -54 18 -51 -3z"/>
<path d="M1320 2774 c0 -8 5 -12 10 -9 6 4 8 11 5 16 -9 14 -15 11 -15 -7z"/>
<path d="M1291 2754 c0 -11 3 -14 6 -6 3 7 2 16 -1 19 -3 4 -6 -2 -5 -13z"/>
<path d="M930 2648 c0 -4 3 -8 8 -8 4 0 7 -19 6 -42 0 -24 2 -54 6 -68 5 -16
8 3 8 51 1 61 -1 76 -13 76 -8 0 -15 -4 -15 -9z"/>
<path d="M1296 2585 c-3 -8 -1 -15 4 -15 6 0 10 7 10 15 0 8 -2 15 -4 15 -2 0
-6 -7 -10 -15z"/>
<path d="M1200 2439 c0 -5 5 -7 10 -4 6 3 10 8 10 11 0 2 -4 4 -10 4 -5 0 -10
-5 -10 -11z"/>
<path d="M1496 2423 c-6 -14 -5 -15 5 -6 7 7 10 15 7 18 -3 3 -9 -2 -12 -12z"/>
<path d="M1590 2356 c0 -13 -5 -26 -12 -28 -8 -3 -7 -6 3 -10 9 -3 16 -1 16 5
0 7 3 22 7 35 5 13 3 22 -3 22 -6 0 -11 -11 -11 -24z"/>
<path d="M4287 2153 c-4 -3 -7 -11 -7 -17 0 -7 3 -7 8 0 4 7 16 14 27 17 19 5
19 5 -1 6 -11 0 -24 -2 -27 -6z"/>
<path d="M4449 2028 c-6 -21 -5 -39 2 -44 5 -3 9 6 9 20 0 21 -7 36 -11 24z"/>
</g>
</svg>
