<?xml version="1.0" standalone="no"?>
<!DOCTYPE svg PUBLIC "-//W3C//DTD SVG 20010904//EN"
 "http://www.w3.org/TR/2001/REC-SVG-20010904/DTD/svg10.dtd">
<svg version="1.0" xmlns="http://www.w3.org/2000/svg"
 width="229.000000pt" height="229.000000pt" viewBox="0 0 229.000000 229.000000"
 preserveAspectRatio="xMidYMid meet">
<metadata>
Created by potrace 1.14, written by Peter Selinger 2001-2017
</metadata>
<g transform="translate(0.000000,229.000000) scale(0.100000,-0.100000)"
fill="#000000" stroke="none">
<path d="M794 2114 c-46 -32 -57 -44 -89 -107 -25 -47 -64 -192 -86 -319 -6
-38 -14 -68 -18 -68 -3 1 -46 9 -96 20 -92 19 -110 16 -103 -16 3 -18 53 -31
221 -59 37 -6 37 -6 37 -55 0 -32 -7 -61 -21 -85 -44 -74 -44 -171 0 -234 10
-14 21 -45 24 -68 7 -55 46 -140 87 -186 18 -21 31 -39 29 -41 -2 -1 -73 -8
-157 -14 -84 -7 -162 -17 -173 -22 -17 -10 -19 -22 -19 -149 l0 -137 -54 -23
c-78 -32 -129 -91 -155 -177 -36 -126 -56 -233 -43 -246 24 -24 38 3 65 118
15 66 36 138 46 160 23 51 70 88 136 107 l50 14 3 146 3 145 67 6 c115 10 282
19 282 15 -2 -28 -88 -303 -95 -306 -6 -2 -39 19 -73 47 -66 53 -86 60 -96 34
-18 -48 255 -217 445 -275 69 -21 74 -21 123 -6 161 51 446 228 446 278 0 30
-27 23 -93 -27 -34 -25 -62 -42 -64 -37 -1 4 -20 73 -42 152 l-39 144 156 -7
c87 -4 177 -11 202 -14 l45 -7 5 -148 5 -148 53 -18 c56 -19 104 -58 128 -104
8 -15 27 -80 43 -145 23 -99 30 -117 47 -117 16 0 19 7 17 40 -2 58 -40 203
-66 254 -26 51 -79 97 -133 116 l-39 13 -3 140 c-2 117 -5 142 -20 155 -19 17
-186 37 -309 37 l-74 0 40 53 c45 60 65 104 81 180 6 30 20 72 30 93 29 55 26
133 -5 196 -17 33 -25 66 -25 99 0 27 2 49 4 49 11 0 176 32 209 41 26 7 37
15 37 29 0 27 -15 28 -114 8 -49 -10 -92 -16 -94 -13 -3 3 -18 68 -34 144 -32
163 -58 236 -101 293 -77 99 -162 100 -324 2 l-32 -19 -28 27 c-72 69 -182 87
-249 42z m155 -44 c24 -11 61 -36 83 -55 48 -44 140 -90 162 -82 28 11 17 36
-26 58 l-42 21 25 19 c29 23 122 59 151 59 33 0 102 -78 127 -143 23 -62 79
-323 71 -331 -28 -28 -548 -41 -734 -18 -55 7 -101 14 -103 16 -2 2 8 62 22
133 40 208 73 284 139 324 39 24 70 24 125 -1z m136 -535 c105 0 234 4 288 8
l97 8 0 -25 c0 -25 0 -25 -35 -10 -127 53 -282 -31 -304 -166 -6 -32 -9 -35
-44 -38 -33 -3 -37 -1 -37 20 0 35 -44 122 -74 146 -62 48 -171 66 -238 37
-14 -5 -18 -2 -18 14 0 20 3 21 88 14 48 -5 173 -8 277 -8z m-198 -66 c38 -14
83 -57 99 -96 33 -76 1 -166 -72 -209 -38 -22 -54 -26 -100 -22 -58 5 -93 24
-128 72 -32 42 -30 149 3 195 42 58 131 86 198 60z m526 -3 c71 -29 118 -115
103 -188 -31 -158 -251 -189 -320 -45 -66 139 76 292 217 233z m-272 -238 c19
-46 66 -96 112 -120 45 -23 141 -27 177 -8 31 17 35 6 16 -45 -26 -67 -106
-149 -182 -186 -152 -75 -355 -36 -464 88 -35 40 -87 139 -78 149 4 3 15 1 26
-5 29 -15 126 -14 165 2 49 21 93 63 117 112 20 42 25 45 60 45 33 0 39 -4 51
-32z m-191 -428 c75 -26 197 -26 281 0 35 10 64 18 64 17 10 -19 82 -304 79
-309 -7 -11 -144 -80 -223 -112 l-64 -26 -88 30 c-92 31 -209 85 -209 97 0 6
74 277 85 311 6 16 9 15 75 -8z"/>
</g>
</svg>
